# xmcd CD database file
#
# Track frame offsets:
#	150
#	16714
#	31247
#	48783
#	60567
#	74940
#	86466
#	102623
#	123200
#	134197
#	151076
#	168754
#	186162
#	197248
#	209163
#	224149
#	239932
#	254641
#	270523
#	287707
#	301572
#	319390
#	334880
#
# Disc length: 4644 seconds
#
# Revision: 1
# Processed by: cddbd v1.5.2PL0 Copyright (c) Steve Scherf et al.
# Submitted via: CDex 1.51
#
DISCID=6a122217
DTITLE=Various Artist - ZM-Party-BS-Disc-3
DYEAR=1900
DGENRE=Blues
TTITLE0=Bee Gees The - Night Fever
TTITLE1=Roy Orbison - Oh Pretty Woman
TTITLE2=Fairground Attraction - Perfect
TTITLE3=Sandie Shaw - Puppet On A String
TTITLE4=Brotherhood Of Man - save All Your Kisses For Me
TTITLE5=!910 Fruitgum Company - Simon Says
TTITLE6=Norman Greenbaum - Spirit In The sky
TTITLE7=Bee Gees The - Stayin' Alive
TTITLE8=Cliff Richard - Summer Holiday
TTITLE9=John Travolta and Olivia Newton-John - Summer Nights
TTITLE10=Elvis Presley - Suspicious Minds
TTITLE11=Neil Diamond - Sweet Caroline
TTITLE12=Buddy Hollie - That'll Be The Day
TTITLE13=Elvis Presley - The Wonder Of You
TTITLE14=Beatles The - Ticket To Ride
TTITLE15=Jason Donovan - Too Many Broken Hearts
TTITLE16=Billy Joel - Uptown Girl
TTITLE17=Buggles The - Video Killed The Radio Star
TTITLE18=Wham - Wake Me Up Before You Go Go
TTITLE19=ABBA - Waterloo
TTITLE20=Village People - Y.M.C.A.
TTITLE21=Barry White - You're The First The Last My Everthing
TTITLE22=John Travolta and Olivia Newton-John - You're The One That I Want
EXTD=
EXTT0=
EXTT1=
EXTT2=
EXTT3=
EXTT4=
EXTT5=
EXTT6=
EXTT7=
EXTT8=
EXTT9=
EXTT10=
EXTT11=
EXTT12=
EXTT13=
EXTT14=
EXTT15=
EXTT16=
EXTT17=
EXTT18=
EXTT19=
EXTT20=
EXTT21=
EXTT22=
PLAYORDER=
